<svg width="60" height="60" viewBox="0 0 60 60" fill="none" xmlns="http://www.w3.org/2000/svg">
<g id="account_circle">
<mask id="mask0_1383_907" style="mask-type:alpha" maskUnits="userSpaceOnUse" x="0" y="0" width="60" height="60">
<rect id="Bounding box" width="60" height="60" fill="#D9D9D9"/>
</mask>
<g mask="url(#mask0_1383_907)">
<path id="account_circle_2" d="M10.3448 49.3103C13.2759 47.2414 16.3362 45.6035 19.5259 44.3966C22.7155 43.1897 26.2069 42.5862 30 42.5862C33.7931 42.5862 37.2845 43.1897 40.4741 44.3966C43.6638 45.6035 46.7241 47.2414 49.6552 49.3103C52.0115 46.954 53.9224 44.1379 55.3879 40.8621C56.8535 37.5862 57.5862 33.9655 57.5862 30C57.5862 22.3563 54.8994 15.8477 49.5259 10.4741C44.1523 5.10058 37.6437 2.41379 30 2.41379C22.3563 2.41379 15.8477 5.10058 10.4741 10.4741C5.10058 15.8477 2.41379 22.3563 2.41379 30C2.41379 33.9655 3.14655 37.5862 4.61207 40.8621C6.07759 44.1379 7.98851 46.954 10.3448 49.3103ZM30.0026 31.2069C27.2422 31.2069 24.9138 30.2595 23.0172 28.3647C21.1207 26.4698 20.1724 24.1422 20.1724 21.3819C20.1724 18.6216 21.1198 16.2931 23.0147 14.3966C24.9095 12.5 27.2371 11.5517 29.9974 11.5517C32.7578 11.5517 35.0862 12.4991 36.9828 14.394C38.8793 16.2888 39.8276 18.6164 39.8276 21.3767C39.8276 24.1371 38.8802 26.4655 36.9854 28.3621C35.0905 30.2586 32.7629 31.2069 30.0026 31.2069ZM30 60C25.8046 60 21.8822 59.2241 18.2328 57.6724C14.5833 56.1207 11.408 53.9943 8.7069 51.2931C6.00575 48.592 3.87931 45.4167 2.32759 41.7672C0.775862 38.1178 0 34.1954 0 30C0 25.8046 0.775862 21.8822 2.32759 18.2328C3.87931 14.5833 6.00575 11.408 8.7069 8.7069C11.408 6.00575 14.5833 3.87931 18.2328 2.32759C21.8822 0.775862 25.8046 0 30 0C34.1954 0 38.1178 0.775862 41.7672 2.32759C45.4167 3.87931 48.592 6.00575 51.2931 8.7069C53.9943 11.408 56.1207 14.5833 57.6724 18.2328C59.2241 21.8822 60 25.8046 60 30C60 34.1954 59.2241 38.1178 57.6724 41.7672C56.1207 45.4167 53.9943 48.592 51.2931 51.2931C48.592 53.9943 45.4167 56.1207 41.7672 57.6724C38.1178 59.2241 34.1954 60 30 60ZM30 57.5862C33.2184 57.5862 36.4224 56.9971 39.6121 55.819C42.8017 54.6408 45.5172 53.046 47.7586 51.0345C45.5172 49.1954 42.8879 47.7299 39.8707 46.6379C36.8535 45.546 33.5632 45 30 45C26.4368 45 23.1322 45.5316 20.0862 46.5948C17.0402 47.658 14.4253 49.1379 12.2414 51.0345C14.4828 53.046 17.1983 54.6408 20.3879 55.819C23.5776 56.9971 26.7816 57.5862 30 57.5862ZM30 28.7931C32.069 28.7931 33.8218 28.0747 35.2586 26.6379C36.6954 25.2012 37.4138 23.4483 37.4138 21.3793C37.4138 19.3103 36.6954 17.5575 35.2586 16.1207C33.8218 14.6839 32.069 13.9655 30 13.9655C27.931 13.9655 26.1782 14.6839 24.7414 16.1207C23.3046 17.5575 22.5862 19.3103 22.5862 21.3793C22.5862 23.4483 23.3046 25.2012 24.7414 26.6379C26.1782 28.0747 27.931 28.7931 30 28.7931Z" fill="#DDDDDD"/>
</g>
</g>
</svg>
