<svg width="24" height="24" viewBox="0 0 24 24" fill="none" xmlns="http://www.w3.org/2000/svg">
<mask id="mask0_1178_2614" style="mask-type:alpha" maskUnits="userSpaceOnUse" x="0" y="0" width="24" height="24">
<rect width="24" height="24" fill="#D9D9D9"/>
</mask>
<g mask="url(#mask0_1178_2614)">
<path d="M10.5998 15.2998L16.7998 9.0998L16.2998 8.5998L10.5998 14.2998L7.7498 11.4498L7.2498 11.9498L10.5998 15.2998ZM5.7998 19.6998C5.36647 19.6998 5.00814 19.5581 4.7248 19.2748C4.44147 18.9915 4.2998 18.6331 4.2998 18.1998V5.7998C4.2998 5.36647 4.44147 5.00814 4.7248 4.7248C5.00814 4.44147 5.36647 4.2998 5.7998 4.2998H18.1998C18.6331 4.2998 18.9915 4.44147 19.2748 4.7248C19.5581 5.00814 19.6998 5.36647 19.6998 5.7998V18.1998C19.6998 18.6331 19.5581 18.9915 19.2748 19.2748C18.9915 19.5581 18.6331 19.6998 18.1998 19.6998H5.7998ZM5.7998 18.9998H18.1998C18.3998 18.9998 18.5831 18.9165 18.7498 18.7498C18.9165 18.5831 18.9998 18.3998 18.9998 18.1998V5.7998C18.9998 5.5998 18.9165 5.41647 18.7498 5.2498C18.5831 5.08314 18.3998 4.9998 18.1998 4.9998H5.7998C5.5998 4.9998 5.41647 5.08314 5.2498 5.2498C5.08314 5.41647 4.9998 5.5998 4.9998 5.7998V18.1998C4.9998 18.3998 5.08314 18.5831 5.2498 18.7498C5.41647 18.9165 5.5998 18.9998 5.7998 18.9998Z" fill="#AFD278"/>
</g>
</svg>
