<svg width="23" height="23" viewBox="0 0 23 23" fill="none" xmlns="http://www.w3.org/2000/svg">
<path fill-rule="evenodd" clip-rule="evenodd" d="M11.5095 0C5.14505 0 0 5.27081 0 11.7915C0 17.0039 3.29661 21.416 7.86988 22.9776C8.44166 23.095 8.6511 22.7239 8.6511 22.4117C8.6511 22.1384 8.63225 21.2014 8.63225 20.2251C5.43059 20.928 4.76387 18.8194 4.76387 18.8194C4.24934 17.4529 3.48697 17.1016 3.48697 17.1016C2.43906 16.3793 3.5633 16.3793 3.5633 16.3793C4.7257 16.4574 5.33564 17.5897 5.33564 17.5897C6.36446 19.3856 8.02231 18.8781 8.68927 18.5657C8.78444 17.8043 9.08953 17.2772 9.41347 16.9845C6.85991 16.7111 4.17324 15.696 4.17324 11.1667C4.17324 9.87822 4.63029 8.82406 5.35449 8.00421C5.24023 7.71144 4.83996 6.50083 5.46899 4.88053C5.46899 4.88053 6.4408 4.56812 8.63202 6.0909C9.57016 5.83279 10.5376 5.70149 11.5095 5.70038C12.4813 5.70038 13.472 5.83718 14.3868 6.0909C16.5782 4.56812 17.55 4.88053 17.55 4.88053C18.1791 6.50083 17.7786 7.71144 17.6643 8.00421C18.4076 8.82406 18.8458 9.87822 18.8458 11.1667C18.8458 15.696 16.1591 16.6915 13.5865 16.9845C14.0058 17.3553 14.3677 18.058 14.3677 19.1709C14.3677 20.7521 14.3488 22.0212 14.3488 22.4115C14.3488 22.7239 14.5585 23.095 15.1301 22.9779C19.7033 21.4158 22.9999 17.0039 22.9999 11.7915C23.0188 5.27081 17.8549 0 11.5095 0Z" fill="black" fill-opacity="0.8"/>
</svg>
